<svg xmlns="http://www.w3.org/2000/svg" viewBox="0 0 419.69 48.65">
    <g id="Layer_2" data-name="Layer 2">
        <g id="Layer_1-2" data-name="Layer 1">
            <path class="logo" d="M209.94,28.28c.15-.16.31-.31.45-.48A16.89,16.89,0,0,0,197.45,0H76.12a1.5,1.5,0,0,0-1.34,2.17l7.28,14.53-13.5,27L55.75,17.94,63.61,2.19A1.5,1.5,0,1,0,60.93.85L45.16,32.43l0,.05h0l-5.64,11.3L18.05.85A1.49,1.49,0,0,0,16.59,0H1.5A1.5,1.5,0,0,0,.16,2.21L23,47.82a1.46,1.46,0,0,0,.27.36l.08.06a1.44,1.44,0,0,0,.35.23l.13.06a1.46,1.46,0,0,0,.52.1H39.51a1.6,1.6,0,0,0,.38-.05l.12,0,.12,0,.12-.06.14-.1.15-.11,0,0a1.66,1.66,0,0,0,.11-.14l.09-.11,0-.06,0-.06,5.63-11.28,5.59,11.28a1.5,1.5,0,0,0,1.35.83H68.54a1.5,1.5,0,0,0,.4-.06l.05,0,.08,0,.23-.1.13-.09,0,0,.08-.05.07-.07.11-.13a1.34,1.34,0,0,0,.1-.12l0-.07,0-.05L83.73,20.08l5.38,10.74H83a1.5,1.5,0,0,0,0,3h7.58l7,14a1.5,1.5,0,0,0,1.34.83H114.1a1.47,1.47,0,0,0,.36,0l.13,0,.18-.06,0,0a1.47,1.47,0,0,0,.41-.32l.08-.1a1.53,1.53,0,0,0,.1-.12,1.59,1.59,0,0,0,.13-.27l0-.05a1.5,1.5,0,0,0,.07-.5.91.91,0,0,0,0-.12,1.5,1.5,0,0,0-.14-.52l-.25-.5L93.75,3h12.58l22.43,44.79a1.5,1.5,0,0,0,1.34.83h15.15a1.5,1.5,0,0,0,1.34-2.17L124.83,3h11.62l22.43,44.8a1.5,1.5,0,0,0,1.34.83H194.7a1.5,1.5,0,0,0,0-3H176.3l-6-12.06h5.44a1.5,1.5,0,0,0,0-3h-6.94L155,3h13.8L175,15.4h21.53a1.5,1.5,0,0,1,0,3h-20l7.29,14.55a1.5,1.5,0,0,0,1.34.83h9.1l7,14a1.5,1.5,0,0,0,1.34.83H217.7A1.5,1.5,0,0,0,219,46.46Z"/>
            <path class="logo" d="M419.54,46.47,397.78,3h16.8a1.5,1.5,0,0,0,0-3H360.12l6.43,12.84a1.5,1.5,0,0,1-2.68,1.35L356.76,0H329A1.5,1.5,0,0,0,327.7,2.2l22.84,45.61a1.5,1.5,0,0,0,1.34.83h13.95L352.67,22.35A1.5,1.5,0,1,1,355.35,21l13.84,27.64h17.54a1.5,1.5,0,0,0,1.34-2.17L366.32,3h13l22.43,44.8a1.5,1.5,0,0,0,1.34.83h15.15a1.5,1.5,0,0,0,1.34-2.17Z"/>
            <path class="logo" d="M321.48.84A1.5,1.5,0,0,0,320.14,0H288.56a1.5,1.5,0,0,0-1.34,2.17l22.84,45.61a1.5,1.5,0,0,0,1.34.83H343a1.5,1.5,0,0,0,1.34-2.17Zm12.6,39a1.5,1.5,0,0,1-2-.67L317.87,10.82a1.5,1.5,0,1,1,2.68-1.34l14.19,28.33A1.5,1.5,0,0,1,334.08,39.82Z"/>
            <path class="logo" d="M285.65,28.28c.15-.16.31-.31.45-.48A16.89,16.89,0,0,0,273.16,0H250.54a1.67,1.67,0,0,0-.17,0H214a1.5,1.5,0,0,0-1.34,2.17L227,30.77h-4.66a1.5,1.5,0,0,0,0,3h6.16l7,14a1.51,1.51,0,0,0,.24.35,14.76,14.76,0,0,0,.32.26l.19.08a1.53,1.53,0,0,0,.19.08,1.58,1.58,0,0,0,.34,0H252a1.5,1.5,0,0,0,1.34-2.17L247,33.77h3.4a1.5,1.5,0,1,0,0-3h-4.91L231.56,3h12.9l6.21,12.41H272.2a1.5,1.5,0,0,1,0,3h-20L259.46,33a1.5,1.5,0,0,0,1.34.83h9.1l7,14a1.5,1.5,0,0,0,1.34.83h15.15a1.5,1.5,0,0,0,1.34-2.17Z"/>
        </g>
    </g>
</svg>